<svg version="1.1" id="Layer_1" xmlns="http://www.w3.org/2000/svg" xmlns:xlink="http://www.w3.org/1999/xlink" x="0px" y="0px"
	 width="100%" viewBox="0 0 256 256" enable-background="new 0 0 256 256" xml:space="preserve">
<path fill="#3495CC" opacity="1.000000" stroke="none" 
	d="
M254.709351,1.257170 
	C258.925323,0.704066 256.117218,3.774775 257.000000,5.500038 
	C251.704361,12.315183 249.827576,19.557575 250.225891,27.775877 
	C250.854233,40.739349 250.533234,53.740429 250.788635,66.716293 
	C250.940308,74.421478 252.799164,82.674988 249.171661,90.297752 
	C248.812454,91.052597 249.197159,91.931343 249.872498,93.028152 
	C250.390671,94.183319 250.546066,94.996162 250.462189,96.234459 
	C245.141769,103.784874 242.498962,112.289185 238.422974,120.060158 
	C229.729660,136.634155 219.193039,151.868530 207.245987,166.184280 
	C193.862289,182.221542 178.622620,196.344513 161.746628,208.587189 
	C140.099380,224.291214 116.572563,236.479156 91.027542,244.622620 
	C88.332314,245.481842 85.624062,246.336670 83.015335,248.317612 
	C81.534096,248.523026 80.433548,248.495895 78.901306,248.400177 
	C70.069214,248.792389 61.678310,248.032074 53.256920,248.387131 
	C42.340233,248.847397 31.388632,248.587021 20.454256,248.455338 
	C16.273748,248.405014 12.219590,248.618118 7.916542,250.338867 
	C7.177791,250.167404 6.893979,250.050491 6.259160,249.633026 
	C5.607139,248.770020 5.519647,248.176254 5.826912,247.130127 
	C6.202492,246.477692 6.398207,246.246155 6.954431,245.741714 
	C9.373719,244.231094 10.061499,242.421967 10.027589,240.031586 
	C9.696004,216.657501 10.592694,193.274536 9.519713,169.905212 
	C9.465859,168.732300 9.709507,167.596268 9.940519,166.038956 
	C10.808851,163.378799 12.723630,163.519913 14.566579,163.507019 
	C31.898323,163.385620 48.736835,160.229492 65.507027,156.009064 
	C81.972137,151.865402 97.781998,146.041626 112.698235,138.166855 
	C128.382065,129.886841 143.059799,120.022217 156.981033,108.809242 
	C169.540680,98.692955 180.390488,87.108315 190.375397,74.768394 
	C204.616425,57.168495 216.167252,37.755070 224.867447,16.750616 
	C225.753967,14.610329 226.505585,12.386055 228.293182,10.287243 
	C229.774658,9.424332 231.050842,8.760998 232.361206,8.915888 
	C240.902328,9.925489 247.808167,6.186502 254.709351,1.257170 
z"/>
<path fill="#7E0A3E" opacity="1.000000" stroke="none" 
	d="
M256.583710,75.883682 
	C257.000000,133.354233 257.000000,190.708450 257.000000,248.531342 
	C252.586609,253.271484 247.338364,255.052856 241.175919,255.044540 
	C185.120667,254.968933 129.065201,255.027191 73.010025,254.924744 
	C69.965508,254.919189 66.723541,256.398651 63.477230,253.955582 
	C63.004921,253.368591 62.853157,253.113586 62.589989,252.440430 
	C62.464264,250.753220 63.299660,250.110382 64.601601,249.421783 
	C65.340195,249.102036 65.763458,248.949036 66.491989,248.700317 
	C66.998291,248.542892 67.205734,248.499176 67.723427,248.387161 
	C68.446716,248.185638 68.869453,248.097031 69.635422,248.027985 
	C71.598137,247.947647 73.248505,248.158234 75.198563,247.524643 
	C76.060341,247.314209 76.563751,247.210190 77.477890,247.153992 
	C78.424690,247.328110 78.944122,247.536972 79.837280,248.001205 
	C81.864502,248.691681 83.542137,248.490036 85.199692,248.490417 
	C135.356827,248.502213 185.513947,248.502502 235.671082,248.495468 
	C239.333038,248.494965 243.014954,248.644058 246.516861,247.215424 
	C249.721848,245.907928 251.559265,243.931198 251.551743,240.093033 
	C251.469406,198.101196 251.699249,156.107162 251.279678,114.119263 
	C251.218140,107.961815 252.871628,101.588562 250.246780,95.118988 
	C249.234802,93.463585 248.461365,92.125893 249.047607,90.594406 
	C250.568451,86.621361 251.346802,82.412102 252.969635,78.474327 
	C253.572845,77.010674 254.540649,76.007339 256.583710,75.883682 
z"/>
<path fill="#A4BF5C" opacity="1.000000" stroke="none" 
	d="
M1.379489,165.318878 
	C1.000000,113.979103 1.000000,62.958210 1.000000,11.468657 
	C5.547444,6.340903 11.654076,5.654262 17.473534,5.616313 
	C53.112442,5.383910 88.753624,5.499952 124.394051,5.500007 
	C156.870132,5.500058 189.346222,5.496285 221.822311,5.508752 
	C223.815582,5.509517 225.820465,5.330332 228.252625,5.929770 
	C229.597855,6.766829 229.884399,7.670609 229.713562,9.194448 
	C228.979736,10.466546 228.297989,11.164920 226.832611,11.506929 
	C222.933319,10.573273 219.442825,10.497060 215.938843,10.497233 
	C152.010956,10.500405 88.083061,10.497282 24.155167,10.506798 
	C20.997145,10.507268 17.811478,10.364228 14.375177,11.871477 
	C13.350539,12.326488 12.761054,12.575926 11.744008,13.039375 
	C7.413084,14.493622 7.463038,17.592297 7.466606,20.908855 
	C7.515715,66.551399 7.502427,112.194016 7.492831,157.836609 
	C7.492411,159.831909 7.641306,161.835144 7.143645,164.279358 
	C6.774292,164.995193 6.574080,165.253616 5.952617,165.766617 
	C4.215392,166.469055 2.943307,166.485107 1.379489,165.318878 
z"/>
<path fill="#5D082E" opacity="1.000000" stroke="none" 
	d="
M62.110497,251.454468 
	C65.399239,254.009995 68.788208,253.009033 72.044617,253.008911 
	C89.199615,253.008301 106.354607,253.002869 123.509605,253.002197 
	C155.654434,253.000961 187.799301,253.032990 219.944061,252.985916 
	C232.167847,252.968033 244.570450,254.398758 256.607239,249.006348 
	C257.000000,257.000000 257.000000,257.000000 249.030746,257.000000 
	C178.666275,257.000000 108.301796,257.000000 37.468658,257.000000 
	C36.612671,256.507690 36.446877,255.949448 36.672646,254.908920 
	C40.553009,251.740707 44.984154,252.431976 49.147724,252.042099 
	C53.347095,251.648880 57.522549,250.712067 62.110497,251.454468 
z"/>
<path fill="#B8CF82" opacity="1.000000" stroke="none" 
	d="
M1.357865,6.336359 
	C0.119724,1.802083 1.731833,0.874121 5.981603,0.883302 
	C80.675026,1.044674 155.368912,1.000000 230.531342,1.000000 
	C232.625778,3.355446 232.407166,5.199228 229.058289,6.175923 
	C226.847000,5.238930 224.989075,5.511067 223.174835,5.510738 
	C154.787064,5.498367 86.399284,5.503979 18.011515,5.482250 
	C15.495517,5.481450 13.123788,5.787881 10.710032,6.635783 
	C7.802339,7.657196 4.714417,8.824368 1.357865,6.336359 
z"/>
<path fill="#B0C872" opacity="1.000000" stroke="none" 
	d="
M1.000000,6.416667 
	C74.487854,1.524773 148.049332,5.190168 221.567795,4.052267 
	C224.082672,4.013342 226.989426,3.022061 229.099457,6.322975 
	C163.347809,6.974668 97.481445,7.046955 31.615353,6.944242 
	C21.433361,6.928364 11.355427,6.888599 1.384405,10.972682 
	C1.000000,9.611111 1.000000,8.222222 1.000000,6.416667 
z"/>
<path fill="#286D97" opacity="1.000000" stroke="none" 
	d="
M257.000000,75.531342 
	C253.634933,79.300552 253.868591,84.132088 251.900986,88.036720 
	C251.088074,89.649895 250.628418,91.441086 249.962006,93.516754 
	C249.758698,94.050308 249.601471,94.218430 249.191254,94.151550 
	C247.721497,93.118614 247.104736,92.004051 247.289978,90.544434 
	C250.170822,67.845200 247.163071,45.080383 248.028854,22.354342 
	C248.289383,15.515626 249.634048,9.554322 256.669983,6.089928 
	C257.000000,29.020895 257.000000,52.041790 257.000000,75.531342 
z"/>
<path fill="#5AAAD6" opacity="1.000000" stroke="none" 
	d="
M1.000000,165.468658 
	C2.072042,165.027725 3.144083,165.055450 4.606999,165.180084 
	C6.776392,166.561859 6.490355,168.479172 6.491373,170.281387 
	C6.504590,193.699661 6.459387,217.118088 6.543607,240.536041 
	C6.556150,244.023895 5.344261,246.265381 1.479675,247.112213 
	C1.000000,219.979111 1.000000,192.958206 1.000000,165.468658 
z"/>
<path fill="#2E79A8" opacity="1.000000" stroke="none" 
	d="
M75.836594,248.852295 
	C73.718430,249.053848 71.830437,249.197983 69.534302,249.362396 
	C68.941139,249.410172 68.756111,249.437668 68.321472,249.593307 
	C68.071861,249.721451 67.865303,249.880157 67.595795,249.977295 
	C66.153946,250.331299 64.981613,250.588165 63.356056,250.827942 
	C49.681507,252.458511 36.399597,252.518677 23.130068,251.923950 
	C16.733505,251.637253 10.971354,252.904266 5.336087,256.713135 
	C2.983032,256.911499 0.071042,258.016388 1.000000,253.500000 
	C2.388428,251.624496 3.228338,249.619156 5.742286,249.117615 
	C14.073650,245.967758 22.443783,247.231583 30.689734,246.987518 
	C40.143055,246.707703 49.593765,247.435089 59.064190,246.206894 
	C65.398819,245.385391 71.855988,247.436523 78.613289,246.665619 
	C79.088524,247.038940 79.244286,247.222168 79.088547,247.587265 
	C78.337837,247.835526 77.898636,247.901917 77.168777,248.137100 
	C76.588997,248.437897 76.318535,248.600891 75.836594,248.852295 
z"/>
<path fill="#51A5D5" opacity="1.000000" stroke="none" 
	d="
M1.000000,247.250000 
	C4.393329,245.171600 5.061391,242.191193 5.047662,238.579117 
	C4.955916,214.442505 5.001288,190.305359 5.000010,165.722687 
	C5.167866,165.153473 5.337859,165.029938 5.761757,164.719666 
	C6.670379,164.334366 7.322778,164.341187 8.360986,164.867065 
	C9.941033,168.683197 9.961064,172.342300 9.971145,175.961014 
	C10.029625,196.955307 9.987366,217.949829 10.015466,238.944244 
	C10.019116,241.671875 9.948478,244.304214 7.332690,246.624695 
	C6.982700,246.972977 6.999297,246.996292 6.988367,246.988770 
	C5.308517,247.836807 3.982927,249.874664 1.336330,248.260864 
	C1.000000,248.000000 1.000000,247.500000 1.000000,247.250000 
z"/>
<path fill="#265B7F" opacity="1.000000" stroke="none" 
	d="
M5.428462,257.000000 
	C6.609651,252.118820 11.101999,250.429184 15.116232,250.320343 
	C30.798964,249.895111 46.506260,249.579666 62.549713,250.621506 
	C62.838791,250.974380 62.774757,251.137894 62.573971,251.527222 
	C54.285721,252.850235 46.134224,253.947403 37.541180,255.099152 
	C36.143505,255.848038 35.050774,256.004761 33.491035,255.940613 
	C25.916430,255.375320 18.759495,254.857956 11.330687,256.749878 
	C9.285642,257.000000 7.571283,257.000000 5.428462,257.000000 
z"/>
<path fill="#74B7DA" opacity="1.000000" stroke="none" 
	d="
M229.184326,7.356342 
	C229.214081,6.959752 229.334763,6.713608 229.356903,6.580359 
	C230.710205,5.155310 231.205399,3.556859 231.052841,1.370086 
	C238.687576,1.000000 246.375168,1.000000 254.531372,1.000000 
	C251.691437,7.238229 246.467300,10.507728 239.455795,10.830917 
	C236.304855,10.976159 233.141251,10.846095 229.522476,10.831579 
	C228.871597,10.761437 228.681625,10.700669 228.513062,10.341484 
	C228.741165,9.279689 228.947876,8.516311 229.184326,7.356342 
z"/>
<path fill="#263E59" opacity="1.000000" stroke="none" 
	d="
M11.466862,257.000000 
	C11.927645,254.371521 14.464412,254.430389 16.422796,254.284622 
	C21.698730,253.891922 27.015797,253.561432 32.644241,254.704544 
	C33.380085,255.322586 33.528755,255.800003 33.221085,256.675354 
	C32.555557,257.000000 32.111111,257.000000 31.333332,257.000000 
	C30.833334,256.863159 30.666666,256.726288 30.250000,256.794678 
	C29.555555,257.000000 29.111111,257.000000 28.333332,257.000000 
	C27.833334,256.863159 27.666666,256.726288 27.250000,256.794678 
	C21.977907,257.000000 16.955816,257.000000 11.466862,257.000000 
z"/>
<path fill="#3495CC" opacity="1.000000" stroke="none" 
	d="
M6.049554,249.052414 
	C5.322618,251.174698 3.594870,252.143265 1.337626,252.945282 
	C1.000000,252.250000 1.000000,251.500000 1.000000,250.375000 
	C2.255252,248.943802 3.592626,248.124649 5.662260,248.735458 
	C5.982202,248.975311 6.026954,249.026840 6.049554,249.052414 
z"/>
<path fill="#439ED1" opacity="1.000000" stroke="none" 
	d="
M6.108437,248.727173 
	C4.560298,249.272903 3.138391,249.570480 1.358243,249.934036 
	C1.000000,249.555557 1.000000,249.111099 1.000000,248.333328 
	C2.740142,247.678070 4.480285,247.356140 6.598932,247.007721 
	C6.729848,247.480499 6.482258,247.979752 6.108437,248.727173 
z"/>
<path fill="#3C193A" opacity="1.000000" stroke="none" 
	d="
M33.399994,257.000000 
	C32.989548,256.538025 32.979099,256.076050 32.982414,255.266251 
	C34.092407,254.945801 35.188637,254.973160 36.692245,255.077133 
	C37.074665,255.563553 37.049706,255.973389 37.012375,256.691589 
	C35.933331,257.000000 34.866657,257.000000 33.399994,257.000000 
z"/>
<path fill="#3C193A" opacity="1.000000" stroke="none" 
	d="
M27.250000,257.000000 
	C27.216478,256.725006 27.478598,256.653473 27.893177,256.892700 
	C28.000000,257.000000 27.500000,257.000000 27.250000,257.000000 
z"/>
<path fill="#3C193A" opacity="1.000000" stroke="none" 
	d="
M30.250000,257.000000 
	C30.205576,256.689911 30.470640,256.609833 30.897596,256.879883 
	C31.000000,257.000000 30.500000,257.000000 30.250000,257.000000 
z"/>
<path fill="#89B24C" opacity="1.000000" stroke="none" 
	d="
M228.352203,10.180519 
	C228.534454,10.043069 228.798981,10.433354 228.930267,10.627781 
	C221.303726,28.912296 212.303574,46.308712 200.983582,62.481823 
	C179.625076,92.997185 152.803970,117.408348 120.248764,135.533905 
	C86.583183,154.277664 50.438679,163.889450 11.543436,165.222992 
	C10.455270,165.575974 9.815413,165.585403 8.845058,164.983322 
	C7.155424,163.063797 7.512238,161.165970 7.511645,159.368759 
	C7.496179,112.490585 7.518513,65.612389 7.455976,18.734303 
	C7.452163,15.875484 7.998274,13.491990 10.674095,11.357553 
	C11.456338,11.001343 11.885088,10.990055 12.635445,10.972122 
	C14.718546,9.627515 16.784784,10.016458 18.749323,10.015895 
	C86.205879,9.996576 153.662430,9.997774 221.118988,10.008162 
	C222.775757,10.008417 224.459122,9.842965 226.500641,10.718340 
	C227.352722,10.736682 227.761337,10.527326 228.352203,10.180519 
z"/>
<path fill="#930C48" opacity="1.000000" stroke="none" 
	d="
M78.974106,248.134216 
	C78.777046,247.769150 78.866936,247.314346 78.899857,247.085037 
	C79.895935,246.786301 80.859108,246.716873 82.185150,246.641083 
	C83.548737,246.442551 84.403908,245.845108 85.769112,245.580292 
	C93.377571,245.451920 100.647652,248.080582 108.236038,245.100510 
	C110.400818,244.832245 112.165688,244.740753 114.361107,245.221512 
	C117.478622,246.543213 120.326096,246.488892 123.155495,246.490005 
	C161.294907,246.504944 199.434311,246.504715 237.573715,246.493408 
	C238.739548,246.493057 239.905731,246.482147 241.069839,246.411331 
	C246.915710,246.055557 248.471619,244.616074 248.467957,238.752045 
	C248.439651,193.455078 248.678345,148.157822 248.350891,102.861183 
	C248.348541,102.535744 248.215118,102.212051 247.934174,101.463608 
	C247.098663,99.738220 247.838226,98.653351 248.488998,97.112122 
	C248.770569,96.007385 248.848709,95.313301 248.932556,94.267883 
	C248.938293,93.916557 249.427490,93.921135 249.671707,93.901665 
	C253.422989,92.774139 253.569199,95.338158 253.437012,97.477631 
	C253.313721,99.473129 253.473618,101.440033 253.423889,103.399712 
	C252.323532,146.772614 252.973022,190.153137 253.207321,233.523483 
	C253.294418,249.646667 248.336899,250.078308 236.520111,250.054016 
	C186.399231,249.950989 136.278000,250.024384 86.156960,249.970032 
	C83.789482,249.967468 81.084061,250.923553 78.974106,248.134216 
z"/>
<path fill="#8F286E" opacity="1.000000" stroke="none" 
	d="
M248.399048,96.861038 
	C248.576019,97.602654 248.459579,98.503838 248.229675,99.733994 
	C249.013657,102.001724 248.200714,103.965385 248.113998,106.280670 
	C243.976440,115.160004 239.942841,123.670280 235.031586,131.756470 
	C229.080765,141.554230 222.715027,151.010895 215.824829,160.202606 
	C207.297821,171.577820 197.479599,181.667984 187.197693,191.303726 
	C172.863297,204.737335 157.154861,216.417389 139.916016,225.975372 
	C128.440308,232.338028 116.797676,238.342453 104.445099,242.808472 
	C100.773079,244.136063 97.015358,245.522919 92.616470,245.579605 
	C90.429123,246.229248 88.763748,247.697205 86.326073,246.416504 
	C85.089668,246.403656 84.168251,246.590561 82.897430,246.706085 
	C88.830246,243.169937 95.858864,241.672256 102.488319,239.114349 
	C151.097290,220.359177 190.253830,189.578949 220.373901,147.138931 
	C231.501129,131.460342 240.113983,114.419319 248.399048,96.861038 
z"/>
<path fill="#439ED1" opacity="1.000000" stroke="none" 
	d="
M8.658403,164.610764 
	C9.467899,164.732529 9.934087,164.893677 10.745900,165.189728 
	C12.684585,178.339249 11.831900,191.411499 11.970159,204.458328 
	C12.093183,216.067474 11.944304,227.679337 12.024440,239.289230 
	C12.048327,242.750137 11.230331,245.518372 7.336658,246.901932 
	C7.847828,244.244400 8.027262,241.448074 8.023245,238.595398 
	C7.989250,214.454254 8.005596,190.313065 8.006275,165.720032 
	C8.108846,165.062164 8.211970,164.856171 8.658403,164.610764 
z"/>
<path fill="#265B7F" opacity="1.000000" stroke="none" 
	d="
M67.291122,250.204681 
	C67.326279,250.074448 67.505219,249.953964 67.558746,249.947983 
	C67.609581,250.178238 67.848412,250.633499 67.291122,250.204681 
z"/>
<path fill="#930C48" opacity="1.000000" stroke="none" 
	d="
M75.831947,248.834335 
	C75.796219,248.619202 76.057587,248.425323 76.634323,248.316986 
	C76.621620,248.487778 76.348068,248.638794 75.831947,248.834335 
z"/>
<path fill="#265B7F" opacity="1.000000" stroke="none" 
	d="
M68.267456,249.741150 
	C68.261909,249.538223 68.486206,249.420059 68.935455,249.374817 
	C68.961647,249.607910 68.740608,249.733978 68.267456,249.741150 
z"/>
<path fill="#9CBA4C" opacity="1.000000" stroke="none" 
	d="
M9.000409,164.135773 
	C8.835406,164.686844 8.669097,164.802322 8.254253,165.092987 
	C7.560773,165.113037 7.115826,164.957886 6.343270,164.667816 
	C6.009233,116.263908 6.016325,67.994911 5.969587,19.725964 
	C5.966018,16.039465 6.186843,12.658610 10.672404,11.086552 
	C9.288644,14.335054 8.963941,17.870003 8.968905,21.589794 
	C9.032132,68.959854 9.003998,116.330032 9.000409,164.135773 
z"/>
<path fill="#9CBA4C" opacity="1.000000" stroke="none" 
	d="
M226.713562,10.642378 
	C155.930496,10.961518 84.916893,10.976997 13.430170,10.978977 
	C14.486766,7.945899 17.319988,9.055428 19.630058,9.053007 
	C75.719696,8.994233 131.809402,9.007164 187.899109,9.007279 
	C198.884033,9.007301 209.869003,8.992194 220.853836,9.022349 
	C222.810120,9.027719 224.905090,8.632667 226.713562,10.642378 
z"/>
<path fill="#8CB032" opacity="1.000000" stroke="none" 
	d="
M152.000000,12.981356 
	C174.316849,12.981416 196.133682,12.973504 217.950531,12.986125 
	C225.318207,12.990388 225.489716,13.552197 222.637451,20.220493 
	C215.004852,38.064587 204.743164,54.392006 193.228180,69.847237 
	C181.583725,85.476204 167.583344,98.964363 152.531677,111.415497 
	C135.737793,125.307838 117.124542,136.168076 97.230736,144.650391 
	C82.974007,150.729156 68.141365,155.306839 52.754944,158.272385 
	C41.016808,160.534775 29.257153,161.625748 17.429705,162.734406 
	C13.364380,163.115463 11.939758,161.719986 11.964703,157.864883 
	C12.033667,147.206757 11.982226,136.547852 11.981931,125.889252 
	C11.980951,90.582603 11.975624,55.275959 11.986705,19.969316 
	C11.988812,13.253520 12.262238,12.987533 19.100199,12.986144 
	C63.233467,12.977181 107.366730,12.981471 152.000000,12.981356 
z"/>
<path fill="#B71059" opacity="1.000000" stroke="none" 
	d="
M91.856133,244.643997 
	C103.798317,241.535065 114.554596,236.302017 125.292946,231.066635 
	C154.359039,216.895691 179.623138,197.583069 201.477386,173.849182 
	C214.462204,159.747543 225.591965,144.226257 234.793137,127.374901 
	C238.535263,120.521446 242.139313,113.592606 245.902130,106.358513 
	C248.581696,106.058037 248.815765,107.846916 248.785660,109.798431 
	C248.125931,152.560303 248.686264,195.324844 248.498932,238.087723 
	C248.494553,239.085983 248.564407,240.090759 248.439514,241.080902 
	C247.984207,244.690720 246.129852,246.869858 242.295990,246.970383 
	C240.798462,247.009644 239.300644,246.999069 237.802933,246.999344 
	C196.864044,247.006699 155.925171,246.987015 114.492554,247.019211 
	C112.285187,247.026337 110.571556,247.023941 108.429634,247.022583 
	C103.877998,247.190735 99.761940,246.732773 95.631531,246.922531 
	C94.102562,246.992798 92.179420,247.272079 91.856133,244.643997 
z"/>
<path fill="#A70D4F" opacity="1.000000" stroke="none" 
	d="
M114.349075,247.246964 
	C116.072266,245.482895 118.483757,246.026627 120.766342,246.024887 
	C159.706329,245.995178 198.646317,246.007477 237.586319,246.000290 
	C246.032593,245.998718 246.994415,245.025803 246.995728,236.503952 
	C247.001923,196.399094 247.048981,156.294037 246.902618,116.189705 
	C246.890945,112.990738 248.765839,109.625702 246.243408,106.264671 
	C246.590973,104.237144 247.183853,102.455330 247.946472,100.368240 
	C250.396881,100.962921 249.981857,102.984970 249.982574,104.752769 
	C250.000977,149.355484 250.021332,193.958252 249.971863,238.560913 
	C249.963470,246.135345 247.987061,247.991837 240.443085,247.995087 
	C200.167480,248.012436 159.891891,248.010178 119.616302,247.981445 
	C117.977180,247.980270 116.338310,247.644882 114.349075,247.246964 
z"/>
<path fill="#A70D4F" opacity="1.000000" stroke="none" 
	d="
M91.717941,244.333588 
	C94.894279,247.787537 98.826981,244.445908 102.089943,245.885712 
	C103.621155,246.561356 105.650894,245.729248 107.671539,246.801056 
	C103.424843,248.910080 98.594543,248.343918 94.045204,247.563263 
	C91.358353,247.102203 88.362259,249.970459 86.037750,246.505066 
	C87.977646,246.129196 89.663765,245.222809 91.717941,244.333588 
z"/>
</svg>