<svg version="1.1" id="Layer_1" xmlns="http://www.w3.org/2000/svg" xmlns:xlink="http://www.w3.org/1999/xlink" x="0px" y="0px"
	 width="100%" viewBox="0 0 233 216" enable-background="new 0 0 233 216" xml:space="preserve">
<path fill="#020202" opacity="1.000000" stroke="none" 
	d="
M1.000000,216.000000 
	C1.000000,208.312424 1.000000,200.624832 1.464923,192.405273 
	C10.856922,191.873291 19.783998,191.873291 28.978117,191.873291 
	C28.978117,189.448456 28.978115,187.638687 28.978117,185.828918 
	C28.978172,126.555107 28.958328,67.281250 29.062124,8.007622 
	C29.065706,5.961622 30.305899,3.917788 31.436794,1.933811 
	C63.615158,1.940694 95.326439,1.886711 127.422638,2.000853 
	C128.277069,4.011089 129.143951,5.850938 129.154434,7.695659 
	C129.256805,25.688509 129.216095,43.682171 129.216110,61.675602 
	C129.216110,65.960106 129.216110,70.244606 129.216110,74.927711 
	C131.490173,74.927711 133.287338,74.927719 135.084503,74.927719 
	C159.908783,74.927734 184.733047,74.925323 209.557327,74.929413 
	C216.002686,74.930473 216.017609,74.939789 216.018539,81.283203 
	C216.023727,116.270432 216.021027,151.257660 216.021011,186.244888 
	C216.021011,188.013779 216.020996,189.782654 216.020996,192.000000 
	C222.401321,192.000000 228.200653,192.000000 234.000000,192.000000 
	C234.000000,199.687576 234.000000,207.375168 233.531342,215.533966 
	C155.708450,216.003479 78.354225,216.001740 1.000000,216.000000 
M87.499962,183.872345 
	C94.829269,183.872452 102.166885,183.662918 109.484726,183.952713 
	C113.754776,184.121796 115.293259,182.892731 115.281303,178.376526 
	C115.142357,125.905876 115.154816,73.434654 115.266357,20.963886 
	C115.274979,16.906385 114.177025,15.436700 109.939682,15.474216 
	C89.286041,15.657074 68.629448,15.627394 47.975071,15.492697 
	C44.208431,15.468133 42.741344,16.447878 42.750484,20.512724 
	C42.869213,73.316612 42.867878,126.120941 42.753471,178.924850 
	C42.744633,183.005112 44.189991,184.007858 48.022385,183.948334 
	C60.845543,183.749222 73.673706,183.872528 87.499962,183.872345 
M176.499939,183.871933 
	C183.163544,183.872314 189.834808,183.679886 196.487915,183.944427 
	C200.565933,184.106552 202.039490,182.830505 202.016129,178.579849 
	C201.861374,150.426834 201.844055,122.271950 202.029663,94.119308 
	C202.059616,89.574280 200.436966,88.499748 196.211792,88.535568 
	C175.889160,88.707909 155.562149,88.772423 135.241669,88.500916 
	C130.191437,88.433449 129.092041,90.257050 129.120850,94.889671 
	C129.291748,122.376106 129.202194,149.864151 129.207458,177.351654 
	C129.208694,183.861115 129.221512,183.868423 135.518112,183.870728 
	C148.845383,183.875610 162.172668,183.872040 176.499939,183.871933 
z"/>
<path fill="#FEFEFE" opacity="1.000000" stroke="none" 
	d="
M234.000000,191.531342 
	C228.200653,192.000000 222.401321,192.000000 216.020996,192.000000 
	C216.020996,189.782654 216.021011,188.013779 216.021011,186.244888 
	C216.021027,151.257660 216.023727,116.270432 216.018539,81.283203 
	C216.017609,74.939789 216.002686,74.930473 209.557327,74.929413 
	C184.733047,74.925323 159.908783,74.927734 135.084503,74.927719 
	C133.287338,74.927719 131.490173,74.927711 129.216110,74.927711 
	C129.216110,70.244606 129.216110,65.960106 129.216110,61.675602 
	C129.216095,43.682171 129.256805,25.688509 129.154434,7.695659 
	C129.143951,5.850938 128.277069,4.011089 127.411194,1.792763 
	C127.014824,1.416547 127.000000,1.000000 127.000000,1.000000 
	C162.614243,1.000000 198.228470,1.000000 234.000000,1.000000 
	C234.000000,64.354141 234.000000,127.708412 234.000000,191.531342 
z"/>
<path fill="#FEFEFE" opacity="1.000000" stroke="none" 
	d="
M30.969707,1.872945 
	C30.305899,3.917788 29.065706,5.961622 29.062124,8.007622 
	C28.958328,67.281250 28.978172,126.555107 28.978117,185.828918 
	C28.978115,187.638687 28.978117,189.448456 28.978117,191.873291 
	C19.783998,191.873291 10.856922,191.873291 1.464923,191.936646 
	C1.000000,128.333313 1.000000,64.666618 1.000000,1.000000 
	C10.767695,1.000000 20.415190,1.000000 30.534786,1.218618 
	C31.006887,1.437237 30.969707,1.872944 30.969707,1.872945 
z"/>
<path fill="#D1D1D1" opacity="1.000000" stroke="none" 
	d="
M1.000000,216.500000 
	C78.354225,216.001740 155.708450,216.003479 233.531342,216.002609 
	C232.503906,216.333344 231.008011,216.957382 229.511703,216.958298 
	C153.341156,217.005692 77.170578,217.000000 1.000000,216.500000 
z"/>
<path fill="#D1D1D1" opacity="1.000000" stroke="none" 
	d="
M31.436794,1.933811 
	C30.969707,1.872944 31.006887,1.437237 31.003445,1.218618 
	C62.687561,1.000000 94.375122,1.000000 126.531342,1.000000 
	C127.000000,1.000000 127.014824,1.416547 127.026276,1.624637 
	C95.326439,1.886711 63.615158,1.940694 31.436794,1.933811 
z"/>
<path fill="#FAFAFA" opacity="1.000000" stroke="none" 
	d="
M86.999954,183.872345 
	C73.673706,183.872528 60.845543,183.749222 48.022385,183.948334 
	C44.189991,184.007858 42.744633,183.005112 42.753471,178.924850 
	C42.867878,126.120941 42.869213,73.316612 42.750484,20.512724 
	C42.741344,16.447878 44.208431,15.468133 47.975071,15.492697 
	C68.629448,15.627394 89.286041,15.657074 109.939682,15.474216 
	C114.177025,15.436700 115.274979,16.906385 115.266357,20.963886 
	C115.154816,73.434654 115.142357,125.905876 115.281303,178.376526 
	C115.293259,182.892731 113.754776,184.121796 109.484726,183.952713 
	C102.166885,183.662918 94.829269,183.872452 86.999954,183.872345 
M62.499561,55.234886 
	C65.920082,55.234886 69.340599,55.234886 72.714767,55.234886 
	C72.714767,46.477768 72.714767,38.302895 72.714767,30.251301 
	C65.646416,30.251301 58.924091,30.251301 52.241150,30.251301 
	C52.241150,38.710354 52.241150,46.895603 52.241150,55.234894 
	C55.555511,55.234894 58.531590,55.234894 62.499561,55.234886 
M103.365974,55.233322 
	C104.234123,54.740696 105.848351,54.263237 105.858711,53.753178 
	C106.018768,45.880856 105.970421,38.004292 105.970421,30.278297 
	C98.442406,30.278297 91.708099,30.278297 85.082947,30.278297 
	C85.082947,38.760365 85.082947,46.939327 85.082947,55.235035 
	C91.119911,55.235035 96.752502,55.235035 103.365974,55.233322 
M64.470108,68.916100 
	C60.368492,68.916100 56.266872,68.916100 52.145729,68.916100 
	C52.145729,77.585785 52.145729,85.663940 52.145729,93.753159 
	C59.253769,93.753159 66.111794,93.753159 72.728683,93.753159 
	C72.728683,85.268372 72.728683,77.186790 72.728683,68.916100 
	C70.085274,68.916100 67.769714,68.916100 64.470108,68.916100 
M84.845589,93.406830 
	C91.809608,93.748367 98.773621,94.089912 105.734863,94.431320 
	C105.734863,85.431168 105.734863,77.387573 105.734863,69.248848 
	C98.613861,69.248848 91.762924,69.248848 84.696754,69.248848 
	C84.696754,77.195389 84.696754,84.810928 84.845589,93.406830 
M55.598450,107.831696 
	C54.368591,108.464973 52.090851,109.064255 52.069035,109.736725 
	C51.817863,117.479179 51.908875,125.232735 51.908875,132.747513 
	C59.395374,132.747513 66.141640,132.747513 72.775238,132.747513 
	C72.775238,124.304947 72.775238,116.215546 72.775238,107.831795 
	C67.190903,107.831795 61.884609,107.831795 55.598450,107.831696 
M92.517540,107.831657 
	C89.947113,107.831657 87.376686,107.831657 84.996124,107.831657 
	C84.996124,116.655884 84.996124,124.716660 84.996124,132.686493 
	C92.165489,132.686493 99.010597,132.686493 105.697395,132.686493 
	C105.697395,124.213470 105.697395,116.155106 105.697395,107.831657 
	C101.433640,107.831657 97.470482,107.831657 92.517540,107.831657 
M58.562424,172.057816 
	C63.308895,172.057816 68.055367,172.057816 72.705956,172.057816 
	C72.705956,163.271225 72.705956,155.081039 72.705956,147.051544 
	C65.626732,147.051544 58.903316,147.051544 52.269234,147.051544 
	C52.269234,155.553940 52.269234,163.733124 52.269234,172.057816 
	C54.284954,172.057816 55.934071,172.057816 58.562424,172.057816 
M84.678078,151.517303 
	C84.678078,158.255203 84.678078,164.993103 84.678078,171.626343 
	C92.164703,171.626343 99.008011,171.626343 105.687561,171.626343 
	C105.687561,163.130707 105.687561,155.069962 105.687561,146.734543 
	C99.419662,146.734543 93.454727,146.894180 87.504105,146.671402 
	C84.220131,146.548462 84.658379,148.541840 84.678078,151.517303 
z"/>
<path fill="#FAFAFA" opacity="1.000000" stroke="none" 
	d="
M175.999939,183.871933 
	C162.172668,183.872040 148.845383,183.875610 135.518112,183.870728 
	C129.221512,183.868423 129.208694,183.861115 129.207458,177.351654 
	C129.202194,149.864151 129.291748,122.376106 129.120850,94.889671 
	C129.092041,90.257050 130.191437,88.433449 135.241669,88.500916 
	C155.562149,88.772423 175.889160,88.707909 196.211792,88.535568 
	C200.436966,88.499748 202.059616,89.574280 202.029663,94.119308 
	C201.844055,122.271950 201.861374,150.426834 202.016129,178.579849 
	C202.039490,182.830505 200.565933,184.106552 196.487915,183.944427 
	C189.834808,183.679886 183.163544,183.872314 175.999939,183.871933 
M170.629730,104.096909 
	C170.629730,112.175392 170.629730,120.253883 170.629730,128.301300 
	C177.971466,128.301300 184.820618,128.301300 191.609833,128.301300 
	C191.609833,119.749237 191.609833,111.664368 191.609833,103.293358 
	C184.581146,103.293358 177.835190,103.293358 170.629730,104.096909 
M185.422577,146.710678 
	C180.530472,146.710678 175.638367,146.710678 170.719116,146.710678 
	C170.719116,155.570709 170.719116,163.642746 170.719116,171.683746 
	C177.889053,171.683746 184.752991,171.683746 191.589722,171.683746 
	C191.589722,163.237076 191.589722,155.185181 191.589722,146.710678 
	C189.655762,146.710678 188.025833,146.710678 185.422577,146.710678 
M142.700317,128.745529 
	C147.984543,128.745529 153.268768,128.745529 158.719391,128.745529 
	C158.719391,119.915344 158.719391,111.697098 158.719391,103.266281 
	C151.685394,103.266281 144.958710,103.266281 137.824448,103.266281 
	C137.824448,110.983490 137.917282,118.444092 137.780960,125.900513 
	C137.722473,129.099899 139.736725,128.771393 142.700317,128.745529 
M137.913071,147.582550 
	C137.913071,155.643692 137.913071,163.704819 137.913071,171.830673 
	C145.168991,171.830673 151.894363,171.830673 158.722122,171.830673 
	C158.722122,163.414154 158.722122,155.227768 158.722122,146.859619 
	C151.814880,146.859619 145.201691,146.859619 137.913071,147.582550 
z"/>
<path fill="#000000" opacity="1.000000" stroke="none" 
	d="
M62.003613,55.234890 
	C58.531590,55.234894 55.555511,55.234894 52.241150,55.234894 
	C52.241150,46.895603 52.241150,38.710354 52.241150,30.251301 
	C58.924091,30.251301 65.646416,30.251301 72.714767,30.251301 
	C72.714767,38.302895 72.714767,46.477768 72.714767,55.234886 
	C69.340599,55.234886 65.920082,55.234886 62.003613,55.234890 
z"/>
<path fill="#000000" opacity="1.000000" stroke="none" 
	d="
M102.875534,55.234177 
	C96.752502,55.235035 91.119911,55.235035 85.082947,55.235035 
	C85.082947,46.939327 85.082947,38.760365 85.082947,30.278297 
	C91.708099,30.278297 98.442406,30.278297 105.970421,30.278297 
	C105.970421,38.004292 106.018768,45.880856 105.858711,53.753178 
	C105.848351,54.263237 104.234123,54.740696 102.875534,55.234177 
z"/>
<path fill="#000000" opacity="1.000000" stroke="none" 
	d="
M64.962128,68.916100 
	C67.769714,68.916100 70.085274,68.916100 72.728683,68.916100 
	C72.728683,77.186790 72.728683,85.268372 72.728683,93.753159 
	C66.111794,93.753159 59.253769,93.753159 52.145729,93.753159 
	C52.145729,85.663940 52.145729,77.585785 52.145729,68.916100 
	C56.266872,68.916100 60.368492,68.916100 64.962128,68.916100 
z"/>
<path fill="#000000" opacity="1.000000" stroke="none" 
	d="
M84.771172,92.916641 
	C84.696754,84.810928 84.696754,77.195389 84.696754,69.248848 
	C91.762924,69.248848 98.613861,69.248848 105.734863,69.248848 
	C105.734863,77.387573 105.734863,85.431168 105.734863,94.431320 
	C98.773621,94.089912 91.809608,93.748367 84.771172,92.916641 
z"/>
<path fill="#000000" opacity="1.000000" stroke="none" 
	d="
M56.088383,107.831741 
	C61.884609,107.831795 67.190903,107.831795 72.775238,107.831795 
	C72.775238,116.215546 72.775238,124.304947 72.775238,132.747513 
	C66.141640,132.747513 59.395374,132.747513 51.908875,132.747513 
	C51.908875,125.232735 51.817863,117.479179 52.069035,109.736725 
	C52.090851,109.064255 54.368591,108.464973 56.088383,107.831741 
z"/>
<path fill="#000000" opacity="1.000000" stroke="none" 
	d="
M93.012428,107.831657 
	C97.470482,107.831657 101.433640,107.831657 105.697395,107.831657 
	C105.697395,116.155106 105.697395,124.213470 105.697395,132.686493 
	C99.010597,132.686493 92.165489,132.686493 84.996124,132.686493 
	C84.996124,124.716660 84.996124,116.655884 84.996124,107.831657 
	C87.376686,107.831657 89.947113,107.831657 93.012428,107.831657 
z"/>
<path fill="#000000" opacity="1.000000" stroke="none" 
	d="
M58.072803,172.057816 
	C55.934071,172.057816 54.284954,172.057816 52.269234,172.057816 
	C52.269234,163.733124 52.269234,155.553940 52.269234,147.051544 
	C58.903316,147.051544 65.626732,147.051544 72.705956,147.051544 
	C72.705956,155.081039 72.705956,163.271225 72.705956,172.057816 
	C68.055367,172.057816 63.308895,172.057816 58.072803,172.057816 
z"/>
<path fill="#000000" opacity="1.000000" stroke="none" 
	d="
M84.678162,151.018921 
	C84.658379,148.541840 84.220131,146.548462 87.504105,146.671402 
	C93.454727,146.894180 99.419662,146.734543 105.687561,146.734543 
	C105.687561,155.069962 105.687561,163.130707 105.687561,171.626343 
	C99.008011,171.626343 92.164703,171.626343 84.678078,171.626343 
	C84.678078,164.993103 84.678078,158.255203 84.678162,151.018921 
z"/>
<path fill="#0A0A0A" opacity="1.000000" stroke="none" 
	d="
M170.859482,103.695129 
	C177.835190,103.293358 184.581146,103.293358 191.609833,103.293358 
	C191.609833,111.664368 191.609833,119.749237 191.609833,128.301300 
	C184.820618,128.301300 177.971466,128.301300 170.629730,128.301300 
	C170.629730,120.253883 170.629730,112.175392 170.859482,103.695129 
z"/>
<path fill="#070707" opacity="1.000000" stroke="none" 
	d="
M185.909241,146.710678 
	C188.025833,146.710678 189.655762,146.710678 191.589722,146.710678 
	C191.589722,155.185181 191.589722,163.237076 191.589722,171.683746 
	C184.752991,171.683746 177.889053,171.683746 170.719116,171.683746 
	C170.719116,163.642746 170.719116,155.570709 170.719116,146.710678 
	C175.638367,146.710678 180.530472,146.710678 185.909241,146.710678 
z"/>
<path fill="#030303" opacity="1.000000" stroke="none" 
	d="
M142.225708,128.745483 
	C139.736725,128.771393 137.722473,129.099899 137.780960,125.900513 
	C137.917282,118.444092 137.824448,110.983490 137.824448,103.266281 
	C144.958710,103.266281 151.685394,103.266281 158.719391,103.266281 
	C158.719391,111.697098 158.719391,119.915344 158.719391,128.745529 
	C153.268768,128.745529 147.984543,128.745529 142.225708,128.745483 
z"/>
<path fill="#000000" opacity="1.000000" stroke="none" 
	d="
M138.250793,147.221085 
	C145.201691,146.859619 151.814880,146.859619 158.722122,146.859619 
	C158.722122,155.227768 158.722122,163.414154 158.722122,171.830673 
	C151.894363,171.830673 145.168991,171.830673 137.913071,171.830673 
	C137.913071,163.704819 137.913071,155.643692 138.250793,147.221085 
z"/>
</svg>